<svg xmlns="http://www.w3.org/2000/svg" viewBox="0 0 826.49 696.88"><defs><style>.cls-1{fill:#d4d1fe;}.cls-2{fill:#adffe8;}.cls-3{fill:#f2e1d9;}.cls-4{fill:#efcebd;}.cls-5{fill:#efd9ce;}.cls-6{fill:#2e2c51;}.cls-7{fill:#6861ff;}.cls-8{fill:none;stroke:#3357a4;stroke-miterlimit:10;stroke-width:18px;}.cls-9{fill:#0d8a64;}.cls-10{fill:#5f5aaa;}.cls-11{fill:#ffde8f;}.cls-12{fill:#f8b51a;}.cls-13{fill:#fed2d1;}.cls-14{fill:#ff5d5b;}.cls-15{fill:#5f58f0;}</style></defs><g id="Layer_2" data-name="Layer 2"><g id="Layer_1-2" data-name="Layer 1"><circle class="cls-1" cx="744.89" cy="357.68" r="81.6"/><circle class="cls-2" cx="385.36" cy="60.2" r="60.2"/><path class="cls-3" d="M343.51,604.58c-2.4.6-2.1,6-3.5,15.9-.2,1.5-1.2,8-3,15.6-1.7,6.7-3.2,12.5-3.2,12.5-2.2,7.8-3,9.8-1.7,11.8.9,1.5,3.5,2.6,8.7,4.7,2.5,1,2.5.9,6,2.3,5.4,2.1,5.7,2.6,10,4.1,1.2.4.5.2,6.9,2.4,2.3.8,4.6,1.5,6.9,2.4,6.5,2.3,7.7,3.1,8.7,2.4,1.5-1.1.9-4.4.3-7.1a40.42,40.42,0,0,0-1.3-4.6c-.9-2.8-1.7-4.9-1.9-5.6-1-2.7-1.7-5.1-3-9.9-1.6-5.7-1.4-5.6-3.1-11.7-2-7.1-2.1-6.5-3.1-10.8l-2.4-9.9c-1.1-4.6-1.3-5.6-2.4-6.7-1.4-1.3-2.1-.9-7.6-3-2.5-1-5-2.1-5.5-2.4C344.51,604.78,344.21,604.38,343.51,604.58Z"/><path class="cls-4" d="M459.51,417.18c1.3-2,4.4-1.6,9.2-1.9a111.57,111.57,0,0,0,11.4-1.6c4.1-.7,7.7-2,14.8-4.3,8.2-2.6,14.2-5.1,20.6-7.7,5.5-2.3,11.4-3.9,16.5-7.1.3-.2,1.3-.9,2.1-.5s1,1.9,1.1,2.6c.4,5.7.6,8.5.6,8.6.8,5.6,1.1,7,1.5,10.1.4,2.8.6,5.3,1.1,10.3.5,5.8.8,8.7,1,11.3.4,6.8.3,10.7,2.1,14.4a13,13,0,0,0,2.7,3.9c1.4,1.4,2,1.3,3.4,2.8a11.19,11.19,0,0,1,3,4.7,10.77,10.77,0,0,1,0,5.4,14.2,14.2,0,0,1-3,5.4c-1.7,1.9-3.3,2.9-6.4,4.9-2,1.2-3.6,2-5.6,3-1.5.8-2.8,1.4-5.4,2.6-2.9,1.3-4.3,2-5.6,2.6-5.3,2.5-4.9,2.5-7.5,3.6a81.08,81.08,0,0,1-7.8,2.7c-1,.3-3,.9-7.2,2-5,1.4-7.6,2-7.9,2.1-5,1.3-7.6,2-8.8,2.4-2.7.9-5.5,1.4-8.1,2.6a7.79,7.79,0,0,1-4.3.9c-1.5-.3-2.3-1.2-4.1-2.9-3.6-3.6-3.2-2.5-5.8-5.2a58.68,58.68,0,0,1-5.6-6.9c-.5-.6-2.1-3-4.1-6.2-1.8-3-2.7-4.5-3.2-6.2a12.83,12.83,0,0,1-.4-7.5,16.75,16.75,0,0,1,2.1-4.1,28.72,28.72,0,0,1,2.8-3,33.55,33.55,0,0,1,3.2-3c1.8-1.2,2.3-.8,3-1.6s.4-1.8.1-5.5c-.2-2.1-.2-4.1-.4-6.2-.2-2.6-.2-3-.2-3.5-.1-2.3-.1-2.6-.2-4.6s-.1-2-.3-4c-.2-2.6-.1-2.6-.2-4.3-.2-3.3-.4-3.6-.5-6.2C459.11,419.18,459.11,417.78,459.51,417.18Z"/><path class="cls-5" d="M466,276.48c1.8.2,1.8,1.1,6.4,3.9.7.4,1.2.6,1.6.8a18.53,18.53,0,0,0,3.4,1.1,27.53,27.53,0,0,1,4.2,1.6c3.1,1.2,3.9,1.1,7.9,2.2,2.7.8,2.1.8,7.5,2.6,5.6,1.9,6.2,1.9,8,2.9,2.4,1.3,4.2,2.4,5.5,4.5,1.8,3,1.3,6.3.6,10.3-.6,3.8-1.3,4-2.6,9a53.64,53.64,0,0,0-1.9,13.2c-.1,6.8,1.1,8.7,1.9,9.6,1.3,1.5,3.6,2.7,4.8,2,.8-.4,1.1-2,1.6-5.2a19.88,19.88,0,0,1,.6-3.2,6.84,6.84,0,0,1,3.7-3.3,9.8,9.8,0,0,1,6.3-.2,12.69,12.69,0,0,1,7.4,3.8,12,12,0,0,1,2.9,6.5c.4,2.8-.6,5.1-2.4,9.8a23.28,23.28,0,0,1-3.4,6.2c-1,1.3-1.5,2-2.3,2.4-1.2.7-2.5.6-3.5,1.8a1.68,1.68,0,0,0-.4.8c-.9,1.9-.3,4.2,2.3,9.3,2.9,5.8,4.8,9.6,9.1,15.1,3.8,4.9,5.4,5.8,5,7.7-.4,2.1-3.8,3.5-10.6,6.4-8.7,3.7-13.1,5.5-13.9,5.8-2.6.9-1.8.5-17.3,4.8-2.4.7-4.6,1.3-7.8,2.1-5.4,1.4-8.1,2.2-11.1,2.8-3.6.7-6.2,1.1-9.4,1.5a115.5,115.5,0,0,1-14.1,1.3c-7.6.1-11.6-.7-13.1-1.2a1,1,0,0,0-.4-.1,22.88,22.88,0,0,1-7.1-3.6c-2.4-1.8-3.7-2.7-4.5-4-1.3-2-1.4-4-1.5-7.2a40.73,40.73,0,0,1,1.1-10.9c2.5-11,1.6-7.7,2.8-12.4,2.1-8,3.4-11.3,1.7-12.9-.8-.7-1.1-.5-4.1-1.1a16.23,16.23,0,0,1-7.1-3.6c-1.7-1.3-2.9-2.3-3.6-4.1a9,9,0,0,1-.2-6.4,10.56,10.56,0,0,1,3.4-4.5c4.4-3.4,15.7-13.1,19.9-18.6,5.3-6.9.6-9.1,5.7-25C453.11,289.28,460.11,275.88,466,276.48Z"/><path class="cls-6" d="M453.61,233.18s4.5,2.4,8.4,4c4.3,1.8,7.7,2,13.7,2.1,11.1.2,20.3.6,24,.9s9.1.9,19.7,2.1c11.4,1.4,16.2,2.2,21.4,3.4a62.49,62.49,0,0,1,11.1,3.4,55.74,55.74,0,0,1,15.1,9.3,59.43,59.43,0,0,1,11,12.2,67.39,67.39,0,0,1,6,11.6,159.35,159.35,0,0,1,5.6,15.9c1.7,5.5,2.5,8.2,3,10.3a68.33,68.33,0,0,1,.9,21.6,92.65,92.65,0,0,1-3.9,20.4,70.76,70.76,0,0,1-12.4,20.6c-4,4.6-7.3,7.1-13.7,12-10.6,8.1-16.7,12.7-21.9,10.7-1.6-.6-3-2.4-6-6a55.37,55.37,0,0,1-7.7-12c-2.9-6.3-6.2-13.2-3.4-16.7,1.5-1.9,2.8-1.1,5.6-3.9.7-.7,2.3-2.3,4.3-9,1.8-6,1.5-7.8,1.3-8.6a10.37,10.37,0,0,0-1.7-3.6,13,13,0,0,0-2.4-2.3,15.77,15.77,0,0,0-7.1-2.7c-2.1-.2-4.8-.5-6.9.9-4.5,3-2.4,10.7-5.1,11.6-1.8.6-5-2.3-6.4-5.6s-.8-6.1,2.6-19.3c2.1-8.1,2.9-10.9,2.1-15-.3-1.9-1-5.5-3.9-8.1-2.2-2.1-4.5-2.5-8.1-3.4-4.7-1.2-9.1-3.2-13.7-4.7-10.3-3.4-15.4-5-18-6.4a46.52,46.52,0,0,1-13.7-11.1,35.26,35.26,0,0,1-6.9-11.6,37.93,37.93,0,0,1-1.7-9.4,102.41,102.41,0,0,1-.4-12c-.3-3.2.5-4.1,1.1-4.5C446.91,229.28,449,230.78,453.61,233.18Z"/><path class="cls-7" d="M463.21,454.38c-.5-1.4-24.6,5.9-30.2,7.6-19.3,5.9-23.4,7.5-28.1,9.9-6.5,3.3-11.1,6.4-18.2,11.4-9.6,6.6-14.5,10-19.3,15.4-5.1,5.8-7.7,10.9-11.6,18.6a155.85,155.85,0,0,0-10.5,27.9c-1.8,6.3-.5,2.8-4.9,21,0,0-2.8,11.5-3.9,30.2a9.62,9.62,0,0,0,1.5,6.4,9.42,9.42,0,0,0,4.5,3.2c4.4,1.7,10.8,4.5,19.7,8.4,1.3,5.6,2.6,11.1,3.9,16.7,8.6,29,14.1,47.6,14.1,47.6h0s10.1,2.6,18,4.5c4,1,10,2.3,17.4,3.9,4.2.1,18.2.5,23.8.6,10.8.3,16.3.4,21.9,0a161.13,161.13,0,0,0,18-2.6c5-.9,13.4-2.3,24.4-4.9,2.9-.7,13.1-3.1,26.4-7.3,10.4-3.2,15.6-4.9,21.9-7.7,4.8-2.2,6.4-3.3,19.3-10.9,23.6-14,26.5-15.2,32.8-20.6,1.7-1.5,5.8-5.9,14.1-14.8,12.9-13.8,19.5-20.9,25.7-29.6,1.1-1.5,5.9-8.3,11.4-17.8s4.4-9.4,13.7-27.9c4.7-9.3,5.4-10.2,5.7-13.2,1-9.9-5-18.3-8.3-22.8-3.9-5.5-8.4-9.3-12.5-12.9-1.8-1.6-4.7-3.7-10.3-8-3.6-2.7-5.7-4.3-10-7.4A71.23,71.23,0,0,0,624,473c-1.2-.6-1-.4-5.6-2.4-6.7-2.9-7.4-3.3-11.9-5.1-3.5-1.4-5.4-2.2-7.7-2.9-.7-.2-2.8-.8-8-1.9-3.7-.8-4.7-.9-8.5-1.6-8.7-1.7-9.1-2.1-13.7-2.7-4.1-.5-3.8-.1-9.2-.6-8.9-.8-13.3-2.3-13.8-1.1s4.7,2.8,5.8,7.5c1,4.4-2.2,8.9-2.8,9.7a20,20,0,0,1-3.4,3.6,47.18,47.18,0,0,1-4.5,3.4c-2,1.3-4.1,2.5-7.1,4.1s-5.4,2.5-9.4,4.2c-3.8,1.6-6.4,2.7-9.9,4-2,.8-3.3,1.2-10.4,3.5-7.4,2.4-11.1,3.6-13.7,4.4-16.9,5.2-10.3,2.3-13.6,3.5a5.79,5.79,0,0,1-3.1.5c-2-.3-3.3-1.7-6.8-5.4-1.2-1.2-2.4-2.4-3.6-3.7-7.1-7.5-6.7-6.9-7.3-7.8a23.72,23.72,0,0,1-5.3-11.1c-.3-1.6-1.1-6.7,1.3-11.4C455.51,456.78,463.51,455.28,463.21,454.38Z"/><ellipse class="cls-8" cx="432.41" cy="419.58" rx="271.2" ry="268.3"/><circle class="cls-2" cx="133.09" cy="511.09" r="81.6"/><path class="cls-9" d="M97.15,508.37c0-10.16,6-16.35,14-16.35a11.75,11.75,0,0,1,8.66,3.88l-2.19,2.61a8.57,8.57,0,0,0-6.4-3c-6,0-9.91,4.88-9.91,12.73s3.78,12.88,9.75,12.88a9.44,9.44,0,0,0,7.3-3.54l2.2,2.52a12.14,12.14,0,0,1-9.66,4.54C103,524.67,97.15,518.6,97.15,508.37Z"/><path class="cls-9" d="M123,520l2.4-2.75a12.3,12.3,0,0,0,8.69,3.9c4.13,0,6.59-2.06,6.59-5.12,0-3.22-2.29-4.24-5.26-5.54l-4.53-2c-2.93-1.25-6.38-3.48-6.38-8.11,0-4.82,4.2-8.36,9.92-8.36a13,13,0,0,1,9.28,3.9l-2.13,2.57a10.08,10.08,0,0,0-7.15-2.95c-3.53,0-5.87,1.78-5.87,4.6,0,3,2.75,4.17,5.21,5.21l4.49,1.95c3.65,1.56,6.5,3.74,6.5,8.42,0,5-4.12,8.95-10.74,8.95A15.1,15.1,0,0,1,123,520Z"/><path class="cls-9" d="M147.91,520l2.4-2.75a12.3,12.3,0,0,0,8.69,3.9c4.13,0,6.59-2.06,6.59-5.12,0-3.22-2.29-4.24-5.26-5.54l-4.53-2c-2.93-1.25-6.38-3.48-6.38-8.11,0-4.82,4.2-8.36,9.92-8.36a13,13,0,0,1,9.28,3.9l-2.13,2.57a10.08,10.08,0,0,0-7.15-2.95c-3.53,0-5.87,1.78-5.87,4.6,0,3,2.75,4.17,5.21,5.21l4.49,1.95c3.65,1.56,6.5,3.74,6.5,8.42,0,5-4.12,8.95-10.74,8.95A15.1,15.1,0,0,1,147.91,520Z"/><circle class="cls-1" cx="60.2" cy="316.48" r="60.2"/><path class="cls-10" d="M21.69,298h9c7.06,0,11.82,2.38,11.82,9.28,0,6.63-4.74,9.73-11.63,9.73H25.7v12.5h-4Zm8.68,15.76c5.51,0,8.14-2,8.14-6.48s-2.79-6-8.33-6H25.7v12.5Z"/><path class="cls-10" d="M48.86,298h4v13.2H67.52V298h4v31.51h-4V314.68H52.87v14.81h-4Z"/><path class="cls-10" d="M80.15,298h9c7.06,0,11.83,2.38,11.83,9.28,0,6.63-4.74,9.73-11.64,9.73H84.16v12.5h-4Zm8.69,15.76c5.51,0,8.14-2,8.14-6.48s-2.8-6-8.33-6H84.16v12.5Z"/><circle class="cls-11" cx="212.1" cy="214.22" r="60.2"/><path class="cls-12" d="M164.36,222.78l2.84-2c1.42,2.5,3.2,3.52,5.46,3.52,3.36,0,5-1.91,5-6.69V195.72h4V218c0,5.45-2.51,9.84-8.68,9.84A9.23,9.23,0,0,1,164.36,222.78Z"/><path class="cls-12" d="M196.68,195.72h4.52l10.66,31.51h-4.25l-5.49-17.6c-1.13-3.52-2.15-7-3.16-10.62h-.19c-1,3.66-2,7.1-3.12,10.62l-5.55,17.6H186Zm-5.06,18.71h14.51v3.2H191.62Z"/><path class="cls-12" d="M211.34,195.72h4.24l5.09,17c1.11,3.71,1.86,6.71,3,10.41h.19c1.17-3.7,2-6.7,3-10.41l5-17h4.08l-10,31.51H221.4Z"/><path class="cls-12" d="M246.16,195.72h4.53l10.66,31.51H257.1l-5.49-17.6c-1.14-3.52-2.15-7-3.16-10.62h-.19c-1,3.66-2,7.1-3.12,10.62l-5.55,17.6h-4.08Zm-5,18.71h14.51v3.2H241.11Z"/><path class="cls-9" d="M350.28,57.48c0-10.16,6-16.35,14-16.35A11.75,11.75,0,0,1,372.92,45l-2.19,2.61a8.57,8.57,0,0,0-6.4-3c-5.95,0-9.91,4.88-9.91,12.73s3.78,12.88,9.75,12.88a9.47,9.47,0,0,0,7.31-3.54l2.19,2.52A12.14,12.14,0,0,1,364,73.78C356.16,73.78,350.28,67.71,350.28,57.48Z"/><path class="cls-9" d="M385.56,58.85h-8.72v-3h8.72V46.51h3.16v9.37h8.72v3h-8.72v9.37h-3.16Z"/><path class="cls-9" d="M409.41,58.85H400.7v-3h8.71V46.51h3.17v9.37h8.71v3h-8.71v9.37h-3.17Z"/><circle class="cls-13" cx="595.95" cy="148.8" r="81.6"/><path class="cls-14" d="M542.63,130.3h4v13.19h14.65V130.3h4v31.5h-4V147H546.64V161.8h-4Z"/><path class="cls-14" d="M580.48,133.69H571V130.3H594v3.39h-9.53V161.8h-4Z"/><path class="cls-14" d="M599.65,130.3h4.83l6,16.83c.76,2.16,1.48,4.38,2.24,6.57H613c.76-2.19,1.42-4.41,2.18-6.57l6-16.83h4.83v31.5H622.2V144.46c0-2.75.31-6.53.51-9.32h-.19l-2.5,7.19-5.94,16.29h-2.65l-6-16.29L603,135.14h-.2c.21,2.79.51,6.57.51,9.32V161.8h-3.63Z"/><path class="cls-14" d="M634.55,130.3h4v28.11h13.75v3.39H634.55Z"/><path class="cls-15" d="M710.65,370.51l4.26-3c2.13,3.75,4.8,5.28,8.18,5.28,5,0,7.55-2.85,7.55-10v-32.8h6v33.35c0,8.18-3.77,14.77-13,14.77C717.64,378.05,713.38,375.44,710.65,370.51Z"/><path class="cls-15" d="M746,371l3.6-4.13a18.43,18.43,0,0,0,13,5.85c6.21,0,9.88-3.09,9.88-7.68,0-4.82-3.42-6.36-7.88-8.31l-6.79-3c-4.4-1.88-9.57-5.22-9.57-12.17,0-7.22,6.29-12.55,14.88-12.55A19.48,19.48,0,0,1,777,334.92l-3.18,3.86a15.14,15.14,0,0,0-10.73-4.43c-5.3,0-8.81,2.67-8.81,6.9,0,4.55,4.12,6.26,7.82,7.82l6.74,2.92c5.47,2.35,9.73,5.6,9.73,12.63,0,7.47-6.17,13.43-16.1,13.43A22.65,22.65,0,0,1,746,371Z"/></g></g></svg>