<?xml version="1.0" encoding="UTF-8" standalone="no"?>
<svg
   height="512"
   viewBox="0 0 512 512"
   width="512"
   version="1.1"
   id="svg6"
   sodipodi:docname="twitter.svg"
   inkscape:version="1.2.2 (b0a8486541, 2022-12-01)"
   xmlns:inkscape="http://www.inkscape.org/namespaces/inkscape"
   xmlns:sodipodi="http://sodipodi.sourceforge.net/DTD/sodipodi-0.dtd"
   xmlns="http://www.w3.org/2000/svg"
   xmlns:svg="http://www.w3.org/2000/svg">
  <defs
     id="defs10" />
  <sodipodi:namedview
     id="namedview8"
     pagecolor="#ffffff"
     bordercolor="#000000"
     borderopacity="0.25"
     inkscape:showpageshadow="2"
     inkscape:pageopacity="0.0"
     inkscape:pagecheckerboard="0"
     inkscape:deskcolor="#d1d1d1"
     showgrid="false"
     inkscape:zoom="0.13623047"
     inkscape:cx="-653.30466"
     inkscape:cy="194.5233"
     inkscape:window-width="1366"
     inkscape:window-height="707"
     inkscape:window-x="0"
     inkscape:window-y="32"
     inkscape:window-maximized="1"
     inkscape:current-layer="g9981" />
  <g
     id="g9981"
     inkscape:export-filename="contact.png"
     inkscape:export-xdpi="96"
     inkscape:export-ydpi="96">
    <g
       id="g10358"
       inkscape:export-filename="contact.png"
       inkscape:export-xdpi="96"
       inkscape:export-ydpi="96">
      <g
         id="g5563"
         transform="translate(920.49888,167.36335)"
         style="fill:none;fill-opacity:0.50000006"
         inkscape:export-filename="contact.png"
         inkscape:export-xdpi="96"
         inkscape:export-ydpi="96">
        <path
           d="m 181.26613,43.845816 c 0,459.021184 -377.04461,831.097914 -842.10862,831.097914 -465.10251,0 -842.10861,-372.11469 -842.10861,-831.097914 0,-459.021186 377.0446,-831.097916 842.10861,-831.097916 465.10248,0 842.10862,372.1147 842.10862,831.097916"
           fill="#00abec"
           fill-rule="evenodd"
           id="path5559"
           style="fill:none;fill-opacity:0.50000006;stroke-width:3.82177" />
      </g>
      <g
         id="g10328"
         transform="translate(92.490367,-165.16129)">
        <g
           id="g5537"
           transform="translate(-293.89752,209.83828)">
          <path
             d="m 930.02111,112.4932 c 0,120.9 -98.006,218.91 -218.91,218.91 -120.904,0 -218.91,-98.006 -218.91,-218.91 0,-120.9040005 98.006,-218.91 218.91,-218.91 120.904,0 218.91,98.0059995 218.91,218.91"
             fill="#3392bb"
             fill-rule="evenodd"
             id="path2735" />
          <path
             d="m 797.15111,-22.946801 c 4.6938,10.659 7.7342,28.3630005 3.1978,41.322 18.554,15.842 24.929,54.353 15.975,85.824001 26.446,2.0176 57.942,-0.97109 78.279,7.1446 -19.008,-2.4433 -44.967,-7.2373 -69.485,-5.5678 -4.6452,0.31687 -11.53,-0.17675 -11.193,6.3589 28.383,2.231 56.584,4.6539 79.885,11.931 -23.112,-3.7755 -51.162,-9.5244 -79.885,-10.326 -11.866,23.408 -35.729,34.915 -68.689,37.338 3.5427,7.7062 10.326,10.643 11.985,23.043 2.4714,18.526 -3.8671,45.655 2.3873,58.006 3.0006,5.917 7.8915,6.0733 11.188,11.132 -8.0715,9.5524 -28.087,-1.0713 -30.361,-11.132 -3.9037,-17.231 5.945,-43.944 -4.7864,-55.623 0.75768,18.791 -4.4448,45.188 0.79863,61.973 2.0661,6.6036 8.0316,9.1504 6.3912,15.1 -37.518,3.811 -21.84,-48.554 -27.97,-79.465 -5.6605,0.40094 -3.173,8.4768 -3.1935,11.92 -0.16058,30.189 6.1779,71.586 -26.357,67.545 -0.95061,-6.3428 4.365,-8.5005 6.3902,-14.294 5.9332,-16.986 -1.1112,-42.292 1.6091,-62.792 -12.416,9.3595 1.3041,42.044 -6.3902,58.804 -4.4329,9.644 -18.719,13.841 -29.555,9.5362 1.4119,-7.1813 8.826,-6.0216 11.974,-12.714 4.3974,-9.3271 0.0323,-22.763 1.6005,-36.551 -22.984,4.586 -40.811,-0.66607 -49.537,-15.1 -3.9037,-6.4775 -4.8705,-14.119 -9.588,-19.862 -4.6938,-5.7446 -12.196,-6.5206 -14.37,-14.298 28.463,-6.8526 29.555,29.294 55.118,30.189 7.8387,0.28454 11.92,-2.2623 19.168,-3.9673 2.0295,-9.1148 6.3751,-15.91 12.781,-20.672 -31.809,-4.3542 -58.079,-14.258 -70.293,-38.132 -28.917,1.4238 -55.377,5.2833 -79.885,11.116 22.245,-8.0801 49.686,-10.976 79.088,-11.931 -1.7331,-10.415 -16.926,-7.5553 -26.357,-7.1489 -17.527,0.77816 -39.592,2.9564 -53.525,5.5721 20.196,-7.2007 48.533,-6.3029 75.898,-6.3589 -8.369,-26.236001 -5.4676,-67.911001 12.781,-83.431001 -5.1712,-13.0299995 -3.5664,-34.352 3.1935,-44.502 20.375,0.91505 32.732,9.7971 45.536,18.2810005 15.875,-4.5138 32.571,-6.7599005 54.32,-5.5646005 9.1471,0.5054805 18.663,4.6172005 25.551,3.9673005 6.7599,-0.63373 14.21,-8.2202005 20.773,-11.1160005 8.549,-3.7755 15.782,-5.2154 25.563,-5.5678"
             fill="#ffffff"
             id="path2737" />
        </g>
        <g
           id="g5541"
           transform="translate(42.73398,345.66169)">
          <path
             d="m 114.12433,-60.559126 c 0,120.9 -98.009995,218.909996 -218.91,218.909996 -120.9,0 -218.91,-98.009996 -218.91,-218.909996 0,-120.900004 98.01,-218.910004 218.91,-218.910004 120.900005,0 218.91,98.01 218.91,218.910004"
             fill="#346da6"
             fill-rule="evenodd"
             id="path1882" />
          <path
             d="M -179.87567,76.250874 V -100.79913 h -54.722 V 76.250874 Z m 0,-239.810004 c -0.326,-15.844 -10.885,-27.908 -28.04,-27.908 -17.16,0 -28.373,12.06 -28.373,27.908 0,15.501 10.885,27.913 27.714,27.913 h 0.326 c 17.485,0 28.373,-12.413 28.373,-27.913 m 89.270005,239.810004 v -100.88 c 0,-5.398 0.39,-10.798 1.977,-14.645 4.341,-10.792 14.219,-21.964 30.805,-21.964 21.728,0 35.36,12.332 35.36,36.61 v 100.88 h 55.1 v -103.57 c 0,-55.48 -29.6180003,-81.300004 -69.12,-81.300004 -32.391,0 -46.61,18.110004 -54.51,30.436004 l 0.395,-23.680004 h -54.999005 c 0.791,16.948004 0,178.120004 0,178.120004 h 54.999005"
             fill="#ffffff"
             id="path1884" />
        </g>
        <g
           id="g5545"
           transform="translate(-83.681788,290.6838)">
          <path
             d="m 471.95,253.05 c 0,120.9 -98.01,218.9 -218.9,218.9 -120.9,0 -218.9,-98.01 -218.9,-218.9 0,-120.9 98.01,-218.9 218.9,-218.9 120.9,0 218.9,98.01 218.9,218.9"
             fill="#00abec"
             fill-rule="evenodd"
             id="path2" />
          <path
             d="m 287.75,152.27 c -22.678,8.448 -37.01,30.2 -35.39,54.01 l 0.55,9.204 -9.08,-1.134 c -33.01,-4.319 -61.86,-18.948 -86.34,-43.51 l -11.98,-12.2 -3.086,9.02 c -6.539,20.05 -2.354,41.27 11.247,55.52 7.245,7.854 5.624,8.988 -6.905,4.292 -4.342,-1.484 -8.161,-2.618 -8.527,-2.051 -1.256,1.323 3.086,18.381 6.539,25.13 4.708,9.393 14.334,18.57 24.848,24.02 l 8.893,4.292 -10.515,0.188 c -10.175,0 -10.515,0.188 -9.442,4.13 3.636,12.2 17.969,25.13 33.925,30.77 l 11.247,3.941 -9.782,5.992 c -14.517,8.637 -31.571,13.496 -48.625,13.873 -8.161,0.187 -14.883,0.945 -14.883,1.512 0,1.862 22.13,12.362 35.02,16.492 38.633,12.2 84.54,6.937 119.01,-13.873 24.482,-14.818 48.991,-44.27 60.42,-72.77 6.173,-15.196 12.346,-42.943 12.346,-56.28 0,-8.61 0.523,-9.744 10.698,-20.05 5.99,-5.992 11.613,-12.578 12.686,-14.44 1.831,-3.563 1.648,-3.563 -7.611,-0.378 -15.432,5.614 -17.603,4.885 -9.966,-3.563 5.624,-5.992 12.32,-16.869 12.32,-20.05 0,-0.567 -2.72,0.351 -5.807,2.051 -3.27,1.862 -10.515,4.697 -15.955,6.37 l -9.809,3.185 -8.893,-6.181 c -4.891,-3.374 -11.77,-7.126 -15.406,-8.26 -9.259,-2.618 -23.41,-2.24 -31.754,0.756"
             fill="#ffffff"
             id="path4" />
        </g>
      </g>
    </g>
  </g>
</svg>
